<svg width="22" height="26" viewBox="0 0 22 26" fill="none" xmlns="http://www.w3.org/2000/svg">
<path d="M1.00003 23.975C1.00164 23.5891 1.07802 23.207 1.22502 22.85C1.3752 22.4853 1.59611 22.1539 1.87502 21.875C2.15392 21.5961 2.4853 21.3752 2.85002 21.225C3.21475 21.0748 3.6056 20.9984 4.00003 21H12.5H19C20.1046 21 21 20.1046 21 19V3.00003C21 1.89546 20.1046 1.00003 19 1.00003H4.00003C3.6056 0.998372 3.21475 1.07484 2.85002 1.22502C2.4853 1.3752 2.15392 1.59611 1.87502 1.87502C1.59611 2.15392 1.3752 2.4853 1.22502 2.85002C1.07484 3.21475 0.998372 3.6056 1.00003 4.00003V23.975Z" fill="white"/>
<path d="M1.00003 24V24C1.00003 24.5523 1.44774 25 2.00003 25H19M1.00003 24V23.975M1.00003 24C0.999991 23.9917 0.999991 23.9833 1.00003 23.975M1.00003 23.975C1.00164 23.5891 1.07802 23.207 1.22502 22.85C1.3752 22.4853 1.59611 22.1539 1.87502 21.875C2.15392 21.5961 2.4853 21.3752 2.85002 21.225C3.21475 21.0748 3.6056 20.9984 4.00003 21H12.5H19C20.1046 21 21 20.1046 21 19V3.00003C21 1.89546 20.1046 1.00003 19 1.00003H4.00003C3.6056 0.998372 3.21475 1.07484 2.85002 1.22502C2.4853 1.3752 2.15392 1.59611 1.87502 1.87502C1.59611 2.15392 1.3752 2.4853 1.22502 2.85002C1.07484 3.21475 0.998372 3.6056 1.00003 4.00003V23.975Z" stroke="white" stroke-width="2" stroke-linecap="round" stroke-linejoin="round"/>
</svg>
