<svg width="24" height="25" viewBox="0 0 24 25" fill="none" xmlns="http://www.w3.org/2000/svg">
<path fill-rule="evenodd" clip-rule="evenodd" d="M3 9.75C3.55229 9.75 4 10.1977 4 10.75V15.75C4 17.1925 4.00213 18.1737 4.10092 18.9086C4.19585 19.6146 4.36322 19.9416 4.58579 20.1642C4.80836 20.3868 5.13538 20.5542 5.84143 20.6491C6.57625 20.7479 7.55752 20.75 9 20.75H15C16.4425 20.75 17.4238 20.7479 18.1586 20.6491C18.8646 20.5542 19.1916 20.3868 19.4142 20.1642C19.6368 19.9416 19.8042 19.6146 19.8991 18.9086C19.9979 18.1737 20 17.1925 20 15.75V10.75C20 10.1977 20.4477 9.75 21 9.75C21.5523 9.75 22 10.1977 22 10.75V15.8205C22 17.1747 22.0001 18.2913 21.8813 19.1751C21.7565 20.1029 21.4845 20.9223 20.8284 21.5784C20.1723 22.2345 19.3529 22.5065 18.4251 22.6312C17.5413 22.7501 16.4247 22.75 15.0706 22.75H8.92943C7.57531 22.75 6.4587 22.7501 5.57494 22.6312C4.64711 22.5065 3.82768 22.2345 3.17158 21.5784C2.51547 20.9223 2.2435 20.1029 2.11875 19.1751C1.99994 18.2913 1.99997 17.1747 2 15.8206V10.75C2 10.1977 2.44772 9.75 3 9.75Z" fill="white"/>
<path d="M17.4659 2.25C18.1014 2.24998 18.6428 2.24995 19.0862 2.30238C19.5603 2.35843 19.9974 2.4811 20.3931 2.77649C20.7867 3.07024 21.0328 3.45546 21.2305 3.89554C21.4172 4.311 21.5873 4.83952 21.789 5.46638L22.4853 7.62954L22.5002 7.67604C22.6763 8.22227 22.8175 8.66018 22.7141 9.32232C22.6713 9.59674 22.6166 9.82192 22.5239 10.0305C22.4367 10.2266 22.328 10.3769 22.2446 10.492L22.2323 10.5092C21.2481 11.8718 19.4436 12.75 17.7543 12.75C16.6746 12.75 15.6772 12.3933 14.8766 11.7923C14.0759 12.3937 13.0789 12.75 11.9989 12.75C10.9195 12.75 9.92238 12.3935 9.12194 11.7928C8.32127 12.3939 7.32456 12.75 6.24489 12.75C4.55562 12.75 2.75108 11.8718 1.76692 10.5092L1.75455 10.4921C1.67123 10.3769 1.56251 10.2266 1.4753 10.0305C1.38259 9.82192 1.32789 9.59674 1.28506 9.32231C1.18173 8.66018 1.32288 8.22227 1.49895 7.67603L1.51393 7.62954L2.19765 5.5053L2.21018 5.4664C2.41192 4.83953 2.58202 4.311 2.76865 3.89554C2.96634 3.45546 3.2125 3.07024 3.60604 2.77649C4.00177 2.4811 4.43892 2.35843 4.91299 2.30238C5.35639 2.24995 5.89776 2.24998 6.53326 2.25H17.4659Z" fill="white"/>
<path fill-rule="evenodd" clip-rule="evenodd" d="M6 18C6 17.4477 6.44772 17 7 17H11C11.5523 17 12 17.4477 12 18C12 18.5523 11.5523 19 11 19H7C6.44772 19 6 18.5523 6 18Z" fill="white"/>
</svg>
