<svg width="24" height="25" viewBox="0 0 24 25" fill="none" xmlns="http://www.w3.org/2000/svg">
<path fill-rule="evenodd" clip-rule="evenodd" d="M5 12.375C5.55228 12.375 6 12.8227 6 13.375V15.3982C6 17.2148 6.88044 18.8628 8.26382 19.762L9.66382 20.672C11.1058 21.6093 12.8942 21.6093 14.3362 20.672L15.7362 19.762C17.1196 18.8628 18 17.2148 18 15.3982V13.375C18 12.8227 18.4477 12.375 19 12.375C19.5523 12.375 20 12.8227 20 13.375V15.3982C20 17.8437 18.8163 20.1452 16.8262 21.4389L15.4262 22.3489C13.3214 23.717 10.6786 23.717 8.57383 22.3489L7.17383 21.4389C5.18371 20.1452 4 17.8437 4 15.3982V13.375C4 12.8227 4.44772 12.375 5 12.375Z" fill="white"/>
<path fill-rule="evenodd" clip-rule="evenodd" d="M12 1.625C11.4297 1.625 10.9077 1.77288 10.3442 2.01556C9.80197 2.24911 9.1734 2.59264 8.39645 3.01726L3.58599 5.64623C2.97174 5.98186 2.43523 6.27502 2.05706 6.56434C1.65507 6.87188 1.27304 7.29387 1.25099 7.92147C1.22901 8.54686 1.57809 8.9961 1.95505 9.33441C2.31094 9.6538 2.82448 9.99054 3.41402 10.3771L4 10.69V13.875C4 14.1139 4.11749 14.3385 4.31636 14.4798C4.51523 14.6211 4.77168 14.6621 5.00689 14.5903C6.99331 13.9839 9.39843 13.625 12 13.625C14.6016 13.625 17.0067 13.9839 18.9931 14.5903C19.2283 14.6621 19.4848 14.6211 19.6836 14.4798C19.8825 14.3385 20 14.1139 20 13.875V10.69L20.5859 10.3772C21.1755 9.99057 21.6891 9.65382 22.045 9.33441C22.422 8.9961 22.771 8.54686 22.7491 7.92147C22.727 7.29387 22.345 6.87188 21.943 6.56434C21.5648 6.27502 21.0283 5.98186 20.414 5.64623L15.6036 3.01727C14.8267 2.59264 14.1981 2.24911 13.6558 2.01556C13.0923 1.77288 12.5704 1.625 12 1.625Z" fill="white"/>
</svg>
