<svg width="22" height="23" viewBox="0 0 22 23" fill="none" xmlns="http://www.w3.org/2000/svg">
<path fill-rule="evenodd" clip-rule="evenodd" d="M0.25 11.5C0.25 5.56294 5.06294 0.75 11 0.75C16.9371 0.75 21.75 5.56294 21.75 11.5C21.75 17.4371 16.9371 22.25 11 22.25C5.06294 22.25 0.25 17.4371 0.25 11.5ZM11 8C10.4477 8 10 8.44772 10 9C10 9.5523 9.5523 10 9 10C8.44771 10 8 9.5523 8 9C8 7.34315 9.3431 6 11 6C12.6569 6 14 7.34315 14 9C14 9.5957 13.8253 10.1537 13.5241 10.6219C13.3433 10.9028 13.1337 11.1684 12.9471 11.4004L12.8449 11.527C12.6904 11.7182 12.5532 11.8881 12.426 12.0629C12.1099 12.4973 12 12.777 12 13C12 13.5523 11.5523 14 11 14C10.4477 14 10 13.5523 10 13C10 12.1184 10.4328 11.403 10.8088 10.8862C10.9687 10.6665 11.1441 10.4494 11.2993 10.2576L11.3889 10.1466C11.5739 9.9167 11.7241 9.7232 11.8422 9.5397C11.942 9.38454 12 9.20057 12 9C12 8.44772 11.5523 8 11 8ZM10.9955 15C10.4457 15 10 15.4477 10 16C10 16.5523 10.4457 17 10.9955 17H11.0045C11.5543 17 12 16.5523 12 16C12 15.4477 11.5543 15 11.0045 15H10.9955Z" fill="white"/>
</svg>
