<svg width="24" height="25" viewBox="0 0 24 25" fill="none" xmlns="http://www.w3.org/2000/svg">
<path fill-rule="evenodd" clip-rule="evenodd" d="M11.5412 2.5015C14.1631 2.43735 16.1543 4.44579 16.2492 6.8353C16.2712 7.38715 15.8416 7.85229 15.2897 7.87423C14.7379 7.89616 14.2727 7.46658 14.2508 6.91473C14.1986 5.60037 13.1031 4.46388 11.5901 4.5009C11.2681 4.50878 10.8273 4.62457 9.57262 4.97848C6.79407 5.76221 4.82159 6.9599 4.34088 9.41093C4.25456 9.85105 4.25002 10.3625 4.25002 11.6628V13.3373C4.25002 14.6375 4.25456 15.149 4.34088 15.5891C4.82159 18.0401 6.79407 19.2378 9.57261 20.0215C10.8273 20.3754 11.2681 20.4912 11.5901 20.4991C13.1031 20.5361 14.1986 19.3996 14.2508 18.0853C14.2727 17.5334 14.7379 17.1038 15.2897 17.1258C15.8416 17.1477 16.2712 17.6129 16.2492 18.1647C16.1543 20.5542 14.1631 22.5627 11.5412 22.4985C10.9317 22.4836 10.224 22.2837 9.18755 21.991C9.13575 21.9764 9.08313 21.9615 9.02967 21.9464C6.08519 21.1159 3.08955 19.6006 2.37827 15.974C2.24978 15.3189 2.24987 14.5995 2.25001 13.4538C2.25001 13.4154 2.25002 13.3766 2.25002 13.3373V11.6628C2.25002 11.6234 2.25001 11.5846 2.25001 11.5463C2.24987 10.4005 2.24978 9.68113 2.37827 9.026C3.08955 5.39942 6.0852 3.88413 9.02967 3.05359C9.08314 3.03851 9.13576 3.02365 9.18756 3.00902C10.224 2.71629 10.9317 2.51641 11.5412 2.5015Z" fill="#FF8800"/>
<path d="M9.75 13.5059C9.19772 13.5059 8.75 13.0581 8.75 12.5059C8.75 11.9536 9.19772 11.5059 9.75 11.5059H17.25V10.9116C17.2499 10.736 17.2497 10.5203 17.2718 10.3439L17.2722 10.3405C17.288 10.2141 17.3598 9.63804 17.9254 9.36368C18.4923 9.08872 18.9924 9.39065 19.1006 9.45597L19.5691 9.79511C19.9449 10.0897 20.4594 10.4954 20.8504 10.8759C21.0455 11.0657 21.2467 11.283 21.4056 11.5139C21.5468 11.7191 21.75 12.0693 21.75 12.5C21.75 12.9307 21.5468 13.2809 21.4056 13.4861C21.2467 13.717 21.0455 13.9343 20.8504 14.1241C20.4594 14.5046 19.9449 14.9102 19.5691 15.2049L19.1006 15.544C18.9924 15.6093 18.4922 15.9113 17.9254 15.6363C17.3598 15.362 17.288 14.7859 17.2722 14.6595L17.2718 14.6561C17.2497 14.4797 17.2499 14.264 17.25 14.0884V13.5059H9.75Z" fill="#FF8800"/>
</svg>
