<svg width="24" height="24" viewBox="0 0 24 24" fill="none" xmlns="http://www.w3.org/2000/svg">
<path id="Vector" d="M0 10.0418C0 11.431 0.259414 12.7364 0.778243 13.9582C1.31381 15.1799 2.03347 16.2427 2.93724 17.1464C3.841 18.0502 4.90377 18.7699 6.12552 19.3054C7.34728 19.8243 8.65272 20.0837 10.0418 20.0837C11.2469 20.0837 12.3891 19.8828 13.4686 19.4812C14.5481 19.0795 15.523 18.5272 16.3933 17.8243L22.5941 24L24 22.5941L17.8243 16.3933C18.5272 15.523 19.0795 14.5481 19.4812 13.4686C19.8828 12.3891 20.0837 11.2469 20.0837 10.0418C20.0837 8.65272 19.8243 7.34728 19.3054 6.12552C18.7699 4.90377 18.0502 3.841 17.1464 2.93724C16.2427 2.03347 15.1799 1.31381 13.9582 0.778242C12.7364 0.259414 11.431 -2.75671e-07 10.0418 -2.75671e-07C8.65272 -2.75671e-07 7.34728 0.259414 6.12552 0.778242C4.90377 1.31381 3.841 2.03347 2.93724 2.93724C2.03347 3.841 1.31381 4.90377 0.778243 6.12552C0.259414 7.34728 0 8.65272 0 10.0418ZM10.0418 18.0753C8.93724 18.0753 7.89121 17.8661 6.90377 17.4477C5.93305 17.0293 5.08368 16.4561 4.35565 15.728C3.62762 15 3.05439 14.1506 2.63598 13.1799C2.21757 12.1925 2.00837 11.1464 2.00837 10.0418C2.00837 8.93724 2.21757 7.89121 2.63598 6.90377C3.05439 5.93305 3.62762 5.08368 4.35565 4.35565C5.08368 3.62761 5.93305 3.05439 6.90377 2.63598C7.89121 2.21757 8.93724 2.00837 10.0418 2.00837C11.1464 2.00837 12.1925 2.21757 13.1799 2.63598C14.1506 3.05439 15 3.62761 15.728 4.35565C16.4561 5.08368 17.0293 5.93305 17.4477 6.90377C17.8661 7.89121 18.0753 8.93724 18.0753 10.0418C18.0753 11.1464 17.8661 12.1925 17.4477 13.1799C17.0293 14.1506 16.4561 15 15.728 15.728C15 16.4561 14.1506 17.0293 13.1799 17.4477C12.1925 17.8661 11.1464 18.0753 10.0418 18.0753Z" fill="white"/>
</svg>
