<svg width="22" height="22" viewBox="0 0 22 22" fill="none" xmlns="http://www.w3.org/2000/svg">
<path fill-rule="evenodd" clip-rule="evenodd" d="M8.52429 0.99594C9.36021 0.52688 10.1344 0.25 11.0005 0.25C11.8665 0.25 12.6408 0.52688 13.4767 0.99594C14.2866 1.45043 15.2146 2.12145 16.3816 2.96523L17.8907 4.05633C18.8272 4.73347 19.5752 5.2743 20.1394 5.77487C20.7219 6.29173 21.1577 6.807 21.4342 7.45513C21.7112 8.10469 21.7782 8.77045 21.7411 9.5381C21.7052 10.2789 21.5679 11.1726 21.3966 12.2871L21.0813 14.3387C20.8379 15.9225 20.6441 17.1837 20.3594 18.1662C20.065 19.1821 19.6503 19.9887 18.9091 20.6052C18.1709 21.2192 17.2916 21.4926 16.2174 21.6231C15.8518 21.6675 15.4527 21.6964 15.0171 21.7151L15.2484 17.554C15.4195 15.0923 13.4685 13 10.9997 13C8.53088 13 6.57994 15.0923 6.75102 17.554L6.98232 21.7151C6.54727 21.6963 6.14872 21.6675 5.78355 21.6231C4.70939 21.4926 3.83006 21.2192 3.09189 20.6052C2.35064 19.9887 1.93593 19.1821 1.64154 18.1662C1.35683 17.1836 1.16304 15.9225 0.919673 14.3387L0.604413 12.2872C0.433123 11.1727 0.295763 10.2789 0.259903 9.5381C0.222733 8.77045 0.289743 8.10469 0.566783 7.45513C0.843223 6.807 1.27904 6.29173 1.86158 5.77487C2.42577 5.27429 3.17378 4.73346 4.11032 4.05632L5.61936 2.96524C6.78635 2.12145 7.71439 1.45043 8.52429 0.99594ZM8.98732 21.7494C9.25221 21.75 9.52681 21.75 9.81161 21.75H12.1894C12.4736 21.75 12.7477 21.75 13.0121 21.7494L13.2523 17.4277L13.2529 17.4199C13.3463 16.1122 12.3106 15 10.9997 15C9.68871 15 8.65313 16.1122 8.74653 17.4199L8.74709 17.4277L8.98732 21.7494Z" fill="white"/>
</svg>
