<svg width="166" height="50" viewBox="0 0 166 50" fill="none" xmlns="http://www.w3.org/2000/svg">
<path d="M24.75 49.5C11.0808 49.5 0 38.4191 0 24.7499C0 11.0811 11.0808 0 24.75 0C38.4189 0 49.5 11.0811 49.5 24.7499C49.5 38.4191 38.4189 49.5 24.75 49.5Z" fill="url(#paint0_linear_2005_853)"/>
<path d="M24.75 49.5C11.0808 49.5 0 38.4191 0 24.7499C0 11.0811 11.0808 0 24.75 0C38.4189 0 49.5 11.0811 49.5 24.7499C49.5 38.4191 38.4189 49.5 24.75 49.5Z" fill="url(#paint1_linear_2005_853)"/>
<path d="M26.8045 31.4684H25.4347V22.1423H16.1093V20.7725H26.8045V31.4684Z" fill="white"/>
<path d="M16.1091 18.0332H33.3905V19.4035H16.1091V18.0332Z" fill="white"/>
<path d="M24.0655 31.4681H22.6958V24.8817H16.1099V23.5117H24.0655V31.4681Z" fill="white"/>
<path d="M54.5568 21.3125V19.0455H68.0653V21.3125H62.6193V36.5H59.9943V21.3125H54.5568ZM85.1024 27.7727C85.1024 29.6364 84.7614 31.2386 84.0796 32.5795C83.3978 33.9148 82.4632 34.9432 81.2757 35.6648C80.0938 36.3807 78.7501 36.7386 77.2444 36.7386C75.733 36.7386 74.3836 36.3807 73.1961 35.6648C72.0143 34.9432 71.0825 33.9119 70.4007 32.571C69.7188 31.2301 69.3779 29.6307 69.3779 27.7727C69.3779 25.9091 69.7188 24.3097 70.4007 22.9744C71.0825 21.6335 72.0143 20.6051 73.1961 19.8892C74.3836 19.1676 75.733 18.8068 77.2444 18.8068C78.7501 18.8068 80.0938 19.1676 81.2757 19.8892C82.4632 20.6051 83.3978 21.6335 84.0796 22.9744C84.7614 24.3097 85.1024 25.9091 85.1024 27.7727ZM82.4944 27.7727C82.4944 26.3523 82.2643 25.1562 81.8041 24.1847C81.3495 23.2074 80.7245 22.4688 79.9291 21.9688C79.1393 21.4631 78.2444 21.2102 77.2444 21.2102C76.2387 21.2102 75.341 21.4631 74.5512 21.9688C73.7614 22.4688 73.1364 23.2074 72.6762 24.1847C72.2217 25.1562 71.9944 26.3523 71.9944 27.7727C71.9944 29.1932 72.2217 30.392 72.6762 31.3693C73.1364 32.3409 73.7614 33.0795 74.5512 33.5852C75.341 34.0852 76.2387 34.3352 77.2444 34.3352C78.2444 34.3352 79.1393 34.0852 79.9291 33.5852C80.7245 33.0795 81.3495 32.3409 81.8041 31.3693C82.2643 30.392 82.4944 29.1932 82.4944 27.7727ZM88.0257 36.5V19.0455H94.2473C95.6053 19.0455 96.7303 19.2926 97.6223 19.7869C98.5144 20.2812 99.182 20.9574 99.6252 21.8153C100.068 22.6676 100.29 23.6278 100.29 24.696C100.29 25.7699 100.066 26.7358 99.6166 27.5938C99.1735 28.446 98.503 29.1222 97.6053 29.6222C96.7132 30.1165 95.5911 30.3636 94.2388 30.3636H89.9604V28.1307H94.0002C94.8581 28.1307 95.5541 27.983 96.0882 27.6875C96.6223 27.3864 97.0144 26.9773 97.2644 26.4602C97.5144 25.9432 97.6394 25.3551 97.6394 24.696C97.6394 24.0369 97.5144 23.4517 97.2644 22.9403C97.0144 22.429 96.6195 22.0284 96.0797 21.7386C95.5456 21.4489 94.8411 21.304 93.9661 21.304H90.6593V36.5H88.0257ZM103.017 36.5V19.0455H105.651V34.233H113.56V36.5H103.017ZM118.838 19.0455V36.5H116.204V19.0455H118.838ZM136.401 19.0455V36.5H133.981L125.108 23.6989H124.946V36.5H122.313V19.0455H124.75L133.631 31.8636H133.793V19.0455H136.401ZM139.883 36.5V19.0455H150.826V21.3125H142.516V26.6307H150.255V28.8892H142.516V34.233H150.928V36.5H139.883Z" fill="white"/>
<defs>
<linearGradient id="paint0_linear_2005_853" x1="28.743" y1="-11.4948" x2="36.9636" y2="73.5783" gradientUnits="userSpaceOnUse">
<stop offset="0.0230714" stop-color="#8B9A06"/>
<stop offset="0.685" stop-color="#464D09"/>
</linearGradient>
<linearGradient id="paint1_linear_2005_853" x1="28.743" y1="-11.4948" x2="36.9636" y2="73.5783" gradientUnits="userSpaceOnUse">
<stop offset="0.0230714" stop-color="#8B9A06"/>
<stop offset="0.685" stop-color="#464D09"/>
</linearGradient>
</defs>
</svg>
